<?xml version="1.0" encoding="UTF-8"?><svg id="Imagen_Vectorizada" xmlns="http://www.w3.org/2000/svg" viewBox="0 0 132.94 167.38"><path id="Cuerpo" d="M1.11,25.86c1.86,0,3.6,0,5.34,0,7.99.02,15.9-.7,23.76-2.11,9.84-1.77,19.43-4.42,28.73-8.11,2.2-.87,4.37-1.8,6.58-2.64.38-.15.9-.16,1.28-.02,4.72,1.75,9.4,3.64,14.15,5.28,8.86,3.07,17.97,5.14,27.25,6.46,7.44,1.06,14.92,1.43,22.43,1.18.53-.02,1.07-.05,1.85-.09,0,1.19,0,2.3,0,3.41,0,22.17.13,44.35-.09,66.52-.09,9.46-.96,18.93-3.96,28-1,3.02-2.37,5.98-3.95,8.74-2.06,3.6-4.78,6.77-8,9.39-3.95,3.22-8.38,5.7-13.13,7.58-4.86,1.93-9.78,3.74-14.6,5.75-4.57,1.91-9.12,3.89-13.58,6.06-2.29,1.11-4.35,2.68-6.5,4.05-.78.5-1.5,1.09-2.31,1.55-.25.14-.74.1-1-.06-2.88-1.75-5.62-3.74-8.61-5.26-4.38-2.21-8.92-4.14-13.43-6.09-3.63-1.57-7.32-3-10.97-4.52-4.7-1.95-9.31-4.11-13.46-7.05-2.51-1.78-4.82-3.89-7-6.08-4.35-4.37-6.88-9.78-8.76-15.61-2-6.21-2.7-12.58-2.7-19.01.02-25.51.17-51.02.3-76.52,0-.69.15-.42.31-1.11M64.05,111.53c.09,1.1.43,2.47.22,3.75-.15.89.01,1.33.72,1.47.72.14,1.51.03,2.26-.05.67-.07.73-.48.73-1.15,0-1.33.25-2.67.43-4,.02-.18.27-.41.46-.46.78-.21,1.58-.46,2.38-.51,2.16-.12,4.33-.24,6.49-.19,3.28.07,5.57-2.02,8.16-3.49.03-.02,0-.14,0-.26h-7.31c.25-.31.41-.57.63-.77,1.9-1.74,2.19-3.97,1.91-6.35-.25-2.1-1.52-3.64-3.1-4.85-1.76-1.34-3.67-2.5-5.64-3.82.11-.65.25-1.56.43-2.47.44-2.21.45-2.18,2.73-2.3.5-.02,1.26-.2,1.41-.53.6-1.29,1.05-2.62,2.65-3.06.19-.05.4-.53.37-.78-.12-1-.27-2.01-.53-2.99-.24-.89.11-1.53.44-2.34,1.02-2.49.08-4.75-1.31-6.84-.49-.74-1.11-1.38-1.68-2.07-.1.06-.2.12-.31.18.12.7.24,1.39.4,2.39-.9-1.15-1.59-2.01-2.27-2.89-1.68-2.17-2.51-2.5-5.35-2.15-.18.02-.37-.12-.56-.15-.23-.03-.47,0-.82,0,.93,1.07,1.74,2,2.55,2.93-.12.11-.24.22-.36.33-1.16-1.06-2.33-2.12-3.49-3.18-1.16-1.06-2.33-2.1-4.11-2.04,1.36.95,2.35,2.11,2.68,3.85-1.4-.24-2.64-.46-3.89-.68.63.78,1.37,1.26,1.98,1.86.27.27.51,1.03.37,1.16-.87.8-1.85,1.48-3.02,2.38.4-1.23.69-2.15,1.07-3.32-1.38,1.11-2.49,2-3.65,2.94-.43-.68-.7-1.11-1.01-1.61-.14.21-.24.29-.24.38-.02.56,0,1.12,0,1.65-.96-.86-.96-2.1.12-3.21.65.52,1.31,1.05,2.05,1.64-.11-1.5-1.68-1.67-2.32-2.97-.47,1.43-.84,2.55-1.21,3.68-2-.44-2.37-2.07-2.54-3.85-.32.89-.41,1.75-.73,2.5-.32.74-.21,1.32.35,1.77.99.79.82,1.65.25,2.52-.78,1.21-.91,2.41-.34,3.75.15.35.15.98-.07,1.23-1.35,1.51-1.22,3.01.46,4.28.13.1.2.3.29.45.47.78.86,1.63,1.46,2.3.3.34.97.41,1.49.48.53.08,1.12-.1,1.62.04.52.15,1.22.44,1.39.86.47,1.18.71,2.46,1.05,3.75-4.29,1.26-7.32,3.73-9.02,7.63-.33.74-.49,1.95-.1,2.53.8,1.18,1.97,2.15,3.09,3.08.7.59,1.58.96,2.39,1.42-2.12-.35-3.28-1.11-4.68-2.57-1.09-1.13-1.68-2.64-3.14-3.54-2.92-1.8-5.43-4.08-7.04-7.2-.12-.23-.58-.38-.88-.37-.25,0-.63.26-.69.47-.06.19.24.49.39.73.75,1.18,1.5,2.36,2.22,3.5-.73.77-1.35.61-1.81.14-1.17-1.19-2.26-2.47-3.42-3.68-.21-.22-.59-.44-.87-.41-.28.03-.63.33-.75.6-.09.2.06.62.24.8,1.08,1.07,2.35,1.99,3.27,3.18.64.82,1.19,2,1.16,3-.05,1.68-.06,1.87,1.46,2.79,1.45.87,2.81,1.89,4.14,2.94,1.86,1.47,3.67,2.96,6.09,3.43,3.84.74,7.67,1.51,11.83,2.34ZM41.19,67.4c-.21-.22-.28-.35-.37-.38-4.39-1.64-8.78-3.28-13.18-4.88-.29-.11-.8.02-1.05.23-1.12.94-2.19,1.95-3.29,2.95,2.77,3.97,5.85,7.18,9.42,10.12.75-.95,1.45-1.84,2.16-2.75-.51-.55-.93-.99-1.45-1.56.61-.58,1.19-1.08,1.73-1.63.72-.74,1.46-.82,2.34-.27.25.16.74.25.95.11.94-.58,1.81-1.26,2.74-1.93ZM100.31,75.78c3.03-3.34,5.82-6.42,8.63-9.49.51-.56.45-.98-.12-1.44-.86-.71-1.65-1.52-2.55-2.18-.36-.27-1-.45-1.4-.33-3.21,1.01-6.41,2.06-9.58,3.2-1.21.44-2.33,1.13-3.65,1.79.67.5,1.21.82,1.63,1.25.75.76,1.5.94,2.47.38.33-.19.95-.24,1.24-.05.86.56,1.63,1.28,2.63,2.09-.73.58-1.1.82-1.39,1.13-.16.17-.32.56-.23.68.66.92,1.38,1.79,2.33,2.98ZM116.25,75.01c-.53.57-.88.95-1.23,1.33-1.57,1.7-3.13,3.42-4.74,5.08-.32.33-.84.55-1.31.65-1.62.33-3.25.59-4.96.89.25,1.17.47,2.22.72,3.38,1.67-.14,3.28-.33,4.9-.4.58-.03,1.23.08,1.74.34,2.48,1.27,4.92,2.61,7.38,3.92.21.11.48.13.85.23-.08-1.44-.2-2.75-.2-4.06,0-.73-.25-1.14-.93-1.4-1.36-.51-2.71-1.08-4.23-1.7,1.17-.96,2.26-1.8,3.27-2.72.26-.23.49-.76.4-1.04-.45-1.4-1-2.76-1.66-4.49ZM13.06,90.47c2.73-1.43,5.22-2.82,7.79-4.05.78-.37,1.77-.47,2.65-.44,1.53.05,3.06.29,4.63.45.28-1.16.54-2.2.82-3.36-1.73-.34-3.41-.6-5.05-1.01-.67-.16-1.39-.51-1.86-.99-1.85-1.85-3.61-3.78-5.43-5.71-.64,1.4-1.3,2.82-1.9,4.26-.07.16.15.53.33.69,1.08.98,2.18,1.93,3.41,3.01-1.42.57-2.68,1.03-3.9,1.59-.48.22-1.14.64-1.2,1.05-.22,1.44-.21,2.91-.3,4.51ZM52.18,53.17c-.22-.61-.36-1.1-.55-1.56-.4-.95-.93-1.43-2.1-1-2.15.79-4.38,1.35-6.52,2.14-1.83.68-3.6,1.55-5.5,2.39.27.37.43.58.58.79q1.42,1.9,3.56.85c1.97-.97,1.95-.96,3.17.93,1.24,1.94,2.53,3.85,3.78,5.75,1.24-.44,2.33-.82,3.45-1.21-1.37-2.63-2.7-5.18-4.1-7.85,1.49-.43,2.81-.81,4.23-1.22ZM81.71,50.29c-.38.97-.73,1.88-1.12,2.89,1.43.43,2.74.82,4.06,1.22-1.36,2.62-2.66,5.1-4.01,7.71,1.11.42,2.06.83,3.05,1.12.24.07.72-.16.89-.39.69-.98,1.28-2.03,1.95-3.03.86-1.3,1.75-2.59,2.61-3.86,1.17.51,2.23,1,3.31,1.43.26.1.74.1.89-.06.6-.68,1.1-1.44,1.71-2.27-4.3-2.19-8.71-3.56-13.33-4.76ZM74.54,49.29c-.03-.11-.07-.23-.1-.34-1.54-.09-3.08-.22-4.62-.24-.34,0-.74.34-1,.63-.83.89-1.61,1.83-2.46,2.83-.81-1.01-1.53-1.92-2.28-2.81-.21-.25-.52-.6-.79-.6-1.71.02-3.42.12-5.21.21.11.32.12.41.17.46,1.76,1.67,3.56,3.31,5.28,5.03.4.4.7,1.03.78,1.59.19,1.33.22,2.68.32,4.03.25.03.4.07.55.07,3.27,0,3.26,0,3.37-3.32.02-.61-.02-1.36.3-1.78.84-1.09,1.86-2.05,2.84-3.03.92-.93,1.89-1.81,2.84-2.71Z" fill="none" stroke="#231f20" stroke-miterlimit="10" stroke-width=".85"/><path id="Linea_1" d="M1.22,20.82c1.48,0,2.91-.01,4.34,0,9.69.09,19.2-1.21,28.62-3.4,8.48-1.98,16.74-4.62,24.79-7.94,2.18-.9,4.35-1.85,6.55-2.72.41-.16.99-.2,1.39-.05,3.9,1.53,7.73,3.22,11.67,4.65,10.82,3.94,21.89,6.9,33.34,8.34,6.22.78,12.46,1.06,18.72.86.38-.01.77,0,1.23,0v4.18c-.76,0-1.49-.02-2.21,0-11.17.28-22.17-.92-33.06-3.38-8.34-1.88-16.49-4.38-24.42-7.57-1.8-.72-3.58-1.47-5.4-2.15-.38-.14-.9-.11-1.29.04-5.63,2.09-11.18,4.44-16.89,6.29-10.86,3.52-22.01,5.73-33.43,6.34-4.65.25-9.32.17-13.97.24,0,0,.03-2.5.03-3.74Z" fill="#2d286c" stroke-width="0"/><path id="Linea_2" d="M131.89,14.81v4.45c-.47.04-.92.11-1.37.12-10.07.3-20-.82-29.83-3.02-8.34-1.87-16.48-4.4-24.44-7.52-3.14-1.23-6.25-2.54-9.39-3.75-.44-.17-1.07-.13-1.52.05-4.44,1.75-8.8,3.69-13.29,5.3-10.03,3.61-20.27,6.39-30.87,7.78-6.22.81-12.45,1.08-18.72.92-.98-.02-1.41-.27-1.32-1.33.09-1.06.02-2.14.02-3.27,3.36,0,6.47.08,9.57-.02,7.95-.25,15.75-1.5,23.46-3.42,7.09-1.76,14.04-3.95,20.79-6.72,3.44-1.41,6.86-2.86,10.32-4.24.45-.18,1.08-.22,1.51-.04,3.46,1.36,6.89,2.83,10.35,4.2,9.07,3.6,18.36,6.45,27.95,8.34,8.49,1.68,17.05,2.46,25.71,2.16.3-.01.61,0,1.06,0Z" fill="#d92a27" stroke-width="0"/><path id="Caracol_Grueso" d="M64.05,111.53c-4.17-.82-8-1.59-11.83-2.34-2.42-.47-4.23-1.97-6.09-3.43-1.33-1.05-2.69-2.07-4.14-2.94-1.52-.92-1.51-1.1-1.46-2.79.03-1-.52-2.17-1.16-3-.93-1.19-2.19-2.11-3.27-3.18-.18-.18-.33-.61-.24-.8.12-.27.47-.56.75-.6.27-.03.65.18.87.41,1.15,1.21,2.24,2.49,3.42,3.68.46.47,1.08.63,1.81-.14-.72-1.13-1.47-2.31-2.22-3.5-.15-.24-.45-.55-.39-.73.07-.22.45-.47.69-.47.3,0,.76.15.88.37,1.62,3.12,4.12,5.4,7.04,7.2,1.45.89,2.05,2.4,3.14,3.54,1.4,1.45,2.56,2.21,4.68,2.57-.8-.47-1.68-.84-2.39-1.42-1.12-.93-2.29-1.9-3.09-3.08-.39-.57-.22-1.78.1-2.53,1.71-3.9,4.73-6.37,9.02-7.63-.34-1.29-.58-2.56-1.05-3.75-.16-.41-.87-.71-1.39-.86-.5-.14-1.09.04-1.62-.04-.52-.08-1.19-.14-1.49-.48-.6-.67-.98-1.52-1.46-2.3-.09-.15-.16-.35-.29-.45-1.68-1.28-1.81-2.77-.46-4.28.22-.25.22-.88.07-1.23-.57-1.34-.44-2.54.34-3.75.56-.87.74-1.74-.25-2.52-.56-.44-.66-1.03-.35-1.77.32-.76.41-1.61.73-2.5.18,1.78.54,3.42,2.54,3.85.37-1.13.74-2.25,1.21-3.68.63,1.3,2.2,1.47,2.32,2.97-.74-.59-1.4-1.12-2.05-1.64-1.08,1.11-1.08,2.35-.12,3.21,0-.53,0-1.09,0-1.65,0-.09.11-.18.24-.38.32.51.59.94,1.01,1.61,1.17-.94,2.27-1.83,3.65-2.94-.38,1.18-.67,2.09-1.07,3.32,1.17-.89,2.14-1.58,3.02-2.38.13-.12-.1-.89-.37-1.16-.61-.6-1.35-1.08-1.98-1.86,1.24.22,2.48.43,3.89.68-.33-1.74-1.32-2.89-2.68-3.85,1.79-.05,2.96.98,4.11,2.04,1.16,1.06,2.33,2.12,3.49,3.18.12-.11.24-.22.36-.33-.81-.93-1.62-1.86-2.55-2.93.35,0,.59-.02.82,0,.19.02.38.17.56.15,2.84-.35,3.67-.02,5.35,2.15.68.87,1.36,1.74,2.27,2.89-.17-1-.29-1.7-.4-2.39.1-.06.2-.12.31-.18.56.69,1.19,1.33,1.68,2.07,1.39,2.09,2.33,4.35,1.31,6.84-.33.81-.68,1.44-.44,2.34.26.97.41,1.98.53,2.99.03.25-.18.73-.37.78-1.6.44-2.05,1.77-2.65,3.06-.15.33-.92.5-1.41.53-2.28.11-2.29.09-2.73,2.3-.18.91-.32,1.82-.43,2.47,1.97,1.32,3.88,2.48,5.64,3.82,1.59,1.21,2.86,2.75,3.1,4.85.28,2.38-.01,4.61-1.91,6.35-.22.2-.38.46-.63.77h7.31c0,.12.03.24,0,.26-2.59,1.46-4.88,3.56-8.16,3.49-2.16-.05-4.33.07-6.49.19-.8.05-1.59.3-2.38.51-.19.05-.44.28-.46.46-.19,1.33-.43,2.67-.43,4,0,.68-.06,1.08-.73,1.15-.75.08-1.53.19-2.26.05-.7-.13-.86-.57-.72-1.47.21-1.28-.13-2.65-.22-3.75ZM67.13,100.05c-.75-.8-1.75-.79-2.45.11.47.17.91.32,1.34.47-.46.22-.84.4-1.21.58-.45.5-.43.8.11,1.17.88.61,2.07.59,2.83-.18.36-.36.8-1,.69-1.35-.11-.37-.84-.55-1.3-.81ZM63.61,110.14c-3.66-.66-6.8-2.46-9.91-4.32-1.87-1.12-3.59-2.34-4.49-4.49-.32-.77-1.17-1.36-1.86-1.94-.43-.36-1.06-.49-1.51-.84-1.21-.93-2.39-.33-3.64-.15,3.32,7.14,10.96,11.39,21.41,11.74ZM77.15,97.74c.14-.13.28-.27.42-.4-.41-.61-.72-1.32-1.25-1.8-1.86-1.72-3.91-3.32-6.49-3.58-2.48-.24-5.03-.23-7.51,0-4.01.39-7.11,2.42-9.12,5.97-.14.25.01.67.03,1.01.75-.34,1.17-.74,1.59-1.14.95-.89,1.82-1.9,2.88-2.65,1.94-1.39,4.25-1.68,6.58-1.99,4.25-.57,7.94.37,11.03,3.44.5.49,1.23.76,1.85,1.13ZM76.99,73.63c-.07-.03-.15-.06-.22-.09-.6-1.62-1.14-3.27-1.83-4.86-.9-2.08-2.16-3.37-3.81-3.37.05.11.07.25.15.31,1.25,1.09,1.6,2.33,1.33,4.03-.15.94.65,2.04,1.11,3.32,1.05-1.85-.06-3.06-.46-4.5.32.1.54.1.64.21,1.35,1.46,2.29,3.09,2.13,5.18-.07.91-.4,1.45-1.37,1.21-.1,1.13-.19,2.16-.28,3.09.58.08,1.16.17,1.73.25.62.09,1.33.33,1.49-.73-.73-.1-1.62-.14-1.07-1.19.48-.91,1.1-1.75,1.71-2.7v3.16c1.08.12,1.34-.78,1.45-1.46.44-2.63-.77-4.7-2.27-6.55-.15,1.57-.3,3.14-.46,4.71ZM61.02,73.52c1.88-1.82,3.94-2.67,4.5-1.92.29-.24.59-.48.89-.71l-.34-.12c.21-.94.42-1.87.63-2.83,1.38-.04,2.07,1.01,2.97,1.71,1.39,1.08,1.7,2.58,1.51,4.23,1.33-.06,1.8-.88,1.48-2.3-.3-1.35-1.34-2.1-2.3-2.93-1.46-1.25-2.9-2.51-4.35-3.75-.33-.28-.7-.5-1.14-.81,0,.26-.02.34,0,.4,1.26,2.75.87,3.69-1.63,5.59-1.05.79-3.08,1.22-2.22,3.44ZM67,90.12c.06-.75.12-1.36.16-1.98.07-1,.81-.95,1.52-.99.81-.05.85.44.82,1.04-.03.72,0,1.45,0,2.17.29-.52.32-1.04.41-1.56.09-.52.19-1.05.36-1.55.11-.32.38-.59.58-.88-.39-.1-.79-.28-1.18-.29-1.62-.04-3.23-.04-4.85-.04-1.15,0-2.32-.07-3.45.08-.41.06-1.07.67-1.06,1.03.02,1.09.3,2.19.47,3.26q1.87-.07,1.8-1.81s0-.08,0-.12c.02-.65-.12-1.33.94-1.33.92,0,1.5.1,1.4,1.23-.04.52.14,1.05.23,1.62.62.04,1.15.08,1.85.12ZM72.72,100.53c.77-1.01.26-2.43-1.11-3.55-3.59-2.95-9.31-1.79-12.11.4-.32.25-.45.74-.68,1.14,1.34.53,1.98-.26,2.73-.78,2.65-1.86,6.54-1.86,9.12.77.35.36.53.88.79,1.33-.12.09-.24.18-.37.27-.72-.66-1.44-1.32-2.25-2.06.61,1.16,1.12,2.15,1.64,3.14.05-.24.12-.55.21-1,.67.11,1.29.22,2.03.35ZM72.63,79.61c-.58-.04-.94-.08-1.31-.08-2.1,0-4.2,0-6.29-.01-3.42-.01-6.83-.06-10.25-.02-.41,0-1.12.37-1.15.64-.06.47.25,1.01.48,1.49.1.2.42.28.63.42.99-.87.19-1.32-.43-1.81.12-.09.24-.19.35-.28.45.39.89.78,1.23,1.07.24-.21.64-.85,1.06-.86.51-.01,1.03.51,1.55.81.7-1.2,1.43-1.24,2.49-.01.93-1.13,1.07-1.13,2.58.03,1-1.09,1.31-1.09,2.48.04.78-1.14,1.45-1.16,2.64-.07.88-1.17,1.49-1.1,2.25-.04.45-.34.94-.72,1.69-1.3ZM67.7,70.78c-.16.03-.33.06-.49.09-.39,1.22-.77,2.45-2.1,3.28-.06-.7-.11-1.17-.16-1.73-.4.88-.16.75.82,2.56.48.89,1.19,1.53,1.68,2.37.05.09.23.11.39.18-.1-.38-.18-.69-.26-1.01l.34.14c.45-.66,1.37-1.41,1.27-1.97-.24-1.34-.96-2.6-1.48-3.89ZM81.24,107.73c-4.04-.02-7.61,2.19-11.61,2.38,3.52.28,10.08-1.03,11.61-2.38ZM64.42,75.51c-.53.37-1.28.8-1.92,1.35-.43.38-.09,1.44.48,1.51.95.12,1.92.12,2.7.16-.41-.99-.78-1.88-1.26-3.03ZM53.54,75.96c.42.5.64.76.9,1.08.14-1.21.26-2.3.39-3.44-1.51.12-.16-1.49-.82-1.81-.27.69-.43,1.41-.8,1.99-.74,1.16-.69,2.31-.24,3.56.18-.43.34-.82.57-1.37ZM71.94,74.37c-1.67.25-2.21,1.49-2.99,2.71h1.4c.24-.59.44-1.1.65-1.61.49,2.01,1.2,3.02,2.19,2.87q-1.41-2.48-1.25-3.96ZM59.63,72.96c-1.22.13-3.3,1.95-3.37,3.01-.02.37.35.77.54,1.16.34-.3.98-.61.97-.89-.05-1.47.76-2.4,1.86-3.27ZM69.74,65.64c.37.78.71,1.61,1.16,2.38.29.49.73.89,1.26,1.53.31-2.38-.67-3.68-2.42-3.91ZM64.27,105.74c1.93,1.15,5.7.78,6.72-.6.33.12.66.25,1.07.41-.17-.48-.28-.81-.44-1.26-2.27,1.66-4.63,2.46-7.35,1.46ZM73.7,97.89c.63,2.04.74,3.75-.58,5.33.9-.06.99-.1,1.61-2.72.19-.82,0-1.77-1.03-2.61ZM60.28,95.88c-3.19.49-4.97,3.91-3.77,7.2-.63-3.64.71-5.72,3.77-7.2ZM76.84,82.45c.43-.9.75-1.48.97-2.09.04-.1-.31-.34-.49-.51-.37.54-.78,1.06-1.09,1.64-.06.11.25.42.6.97ZM60.81,100.06c-1.32,2.33-.53,4.34,1.91,5.08-1.96-1.2-3.08-2.71-1.91-5.08ZM68.15,81.97c.08-.11.15-.22.23-.33-.36-.32-.7-.86-1.09-.9-.72-.07-.93.5-.78,1.23h1.64ZM60.39,81.89c.02-.69.06-1.32-.79-1.25-.83.07-.86.66-.72,1.43.54-.06,1.01-.12,1.52-.18ZM74.72,80.34c-.95-.18-1.14.07-1.28,1.69.95.05,1.11-.16,1.28-1.69ZM68.88,81.68c.14.18.28.37.42.55.42-.22.85-.44,1.27-.67l-.67-.95c-.34.35-.68.71-1.01,1.06ZM61.22,81.62c.07.11.14.22.21.32h1.48c.06-.1.12-.19.19-.29-.3-.32-.6-.64-.9-.97-.33.31-.65.62-.98.93ZM65.35,81.99c.1-.11.2-.23.3-.34-.3-.32-.6-.64-.9-.95-.27.36-.55.71-.99,1.29h1.6ZM57.1,80.24c-.31.59-.59.92-.61,1.28,0,.14.53.44.83.45.19,0,.57-.44.54-.62-.06-.31-.37-.57-.75-1.1ZM55.24,70.98v2.05l.23.15c.32-.39.64-.79.99-1.22-.36-.29-.7-.56-1.22-.97ZM65.78,103.81c1.49.41,2.77.06,3.3-.79-1.03.25-2.11.5-3.3.79ZM63.19,98.56c.02.12.04.24.05.36,1.19-.21,2.37-.42,3.56-.63-.02-.1-.03-.21-.05-.31-1.19.19-2.37.38-3.56.58Z" fill="#fff" stroke-width="0"/><path id="Letra_A1" d="M41.19,67.4c-.93.67-1.8,1.35-2.74,1.93-.22.14-.7.04-.95-.11-.88-.55-1.62-.47-2.34.27-.53.55-1.11,1.05-1.73,1.63.52.56.94,1.01,1.45,1.56-.71.91-1.42,1.8-2.16,2.75-3.56-2.94-6.65-6.15-9.42-10.12,1.1-.99,2.16-2,3.29-2.95.25-.21.76-.33,1.05-.23,4.4,1.6,8.79,3.24,13.18,4.88.1.04.16.16.37.38ZM29.12,66.23c-.05.06-.09.11-.14.17.32.41.63.82.96,1.21,1.34,1.61,1.41,1.61,2.74-.22-1.21-.39-2.39-.78-3.57-1.16Z" fill="#2d286c" stroke-width="0"/><path id="Letra_A2" d="M100.31,75.78c-.94-1.19-1.66-2.06-2.33-2.98-.09-.12.08-.52.23-.68.29-.31.65-.54,1.39-1.13-1-.81-1.77-1.53-2.63-2.09-.29-.19-.91-.13-1.24.05-.97.56-1.71.38-2.47-.38-.42-.43-.96-.74-1.63-1.25,1.32-.66,2.44-1.35,3.65-1.79,3.17-1.14,6.37-2.19,9.58-3.2.4-.13,1.04.06,1.4.33.9.66,1.69,1.47,2.55,2.18.57.47.62.89.12,1.44-2.81,3.07-5.6,6.15-8.63,9.49ZM100.37,67.22c.38.55.75,1.07,1.13,1.61.82-.96,1.54-1.8,2.43-2.85-1.43.5-2.58.9-3.55,1.24Z" fill="#2d286c" stroke-width="0"/><path id="Letra_Y2" d="M116.25,75.01c.66,1.74,1.22,3.1,1.66,4.49.09.28-.15.81-.4,1.04-1.02.92-2.1,1.76-3.27,2.72,1.53.62,2.87,1.19,4.23,1.7.68.26.93.67.93,1.4,0,1.31.12,2.62.2,4.06-.37-.1-.63-.11-.85-.23-2.46-1.3-4.9-2.65-7.38-3.92-.51-.26-1.16-.37-1.74-.34-1.62.07-3.23.26-4.9.4-.25-1.16-.47-2.2-.72-3.38,1.71-.3,3.34-.56,4.96-.89.47-.1.99-.32,1.31-.65,1.61-1.66,3.16-3.38,4.74-5.08.35-.38.7-.76,1.23-1.33Z" fill="#2d286c" stroke-width="0"/><path id="Letra_Y1" d="M13.06,90.47c.09-1.59.08-3.07.3-4.51.06-.41.72-.82,1.2-1.05,1.21-.56,2.48-1.02,3.9-1.59-1.22-1.07-2.33-2.02-3.41-3.01-.18-.17-.4-.53-.33-.69.6-1.44,1.27-2.86,1.9-4.26,1.82,1.93,3.58,3.86,5.43,5.71.48.48,1.2.82,1.86.99,1.64.41,3.32.67,5.05,1.01-.28,1.16-.54,2.2-.82,3.36-1.57-.16-3.1-.41-4.63-.45-.88-.03-1.87.07-2.65.44-2.57,1.23-5.06,2.61-7.79,4.05Z" fill="#2d286c" stroke-width="0"/><path id="Letra_T1" d="M52.18,53.17c-1.42.41-2.75.79-4.23,1.22,1.4,2.68,2.73,5.22,4.1,7.85-1.13.4-2.21.78-3.45,1.21-1.25-1.9-2.54-3.81-3.78-5.75-1.21-1.89-1.2-1.9-3.17-.93q-2.15,1.05-3.56-.85c-.16-.21-.31-.42-.58-.79,1.9-.83,3.67-1.71,5.5-2.39,2.14-.79,4.37-1.35,6.52-2.14,1.17-.43,1.71.05,2.1,1,.19.46.34.95.55,1.56Z" fill="#2d286c" stroke-width="0"/><path id="Letra_T2" d="M81.71,50.29c4.61,1.19,9.03,2.57,13.33,4.76-.61.83-1.12,1.59-1.71,2.27-.14.16-.63.16-.89.06-1.08-.42-2.13-.91-3.31-1.43-.86,1.27-1.75,2.56-2.61,3.86-.66,1-1.26,2.05-1.95,3.03-.16.23-.64.46-.89.39-.99-.29-1.94-.7-3.05-1.12,1.36-2.61,2.65-5.09,4.01-7.71-1.33-.4-2.63-.79-4.06-1.22.39-1.01.75-1.92,1.12-2.89Z" fill="#2d286c" stroke-width="0"/><path id="Letra_Y1-2" d="M74.54,49.29c-.95.9-1.91,1.79-2.84,2.71-.98.98-2,1.94-2.84,3.03-.33.42-.28,1.17-.3,1.78-.11,3.33-.1,3.33-3.37,3.32-.15,0-.3-.04-.55-.07-.1-1.36-.13-2.71-.32-4.03-.08-.56-.38-1.19-.78-1.59-1.72-1.72-3.52-3.36-5.28-5.03-.05-.05-.05-.14-.17-.46,1.78-.08,3.49-.19,5.21-.21.26,0,.57.35.79.6.75.89,1.46,1.8,2.28,2.81.86-.99,1.64-1.93,2.46-2.83.26-.28.67-.63,1-.63,1.54.02,3.08.15,4.62.24.03.11.07.23.1.34Z" fill="#2d286c" stroke-width="0"/><path id="Caracol_Cuello_black" d="M63.61,110.14c-10.44-.35-18.08-4.6-21.41-11.74,1.26-.18,2.43-.78,3.64.15.45.35,1.08.47,1.51.84.69.58,1.53,1.16,1.86,1.94.9,2.15,2.62,3.38,4.49,4.49,3.11,1.86,6.25,3.65,9.91,4.32Z" fill="#000" stroke-width="0"/><path id="Caracol_Caparazon_Black" d="M77.15,97.74c-.62-.37-1.35-.63-1.85-1.13-3.09-3.07-6.78-4.01-11.03-3.44-2.32.31-4.63.6-6.58,1.99-1.05.75-1.92,1.76-2.88,2.65-.42.39-.83.79-1.59,1.14-.02-.34-.17-.76-.03-1.01,2.01-3.54,5.1-5.58,9.12-5.97,2.48-.24,5.03-.25,7.51,0,2.59.25,4.63,1.86,6.49,3.58.52.48.84,1.2,1.25,1.8-.14.13-.28.27-.42.4Z" fill="#000" stroke-width="0"/><path id="Llama_1" d="M76.99,73.63c.15-1.57.3-3.14.46-4.71,1.5,1.85,2.7,3.93,2.27,6.55-.11.68-.37,1.59-1.45,1.46v-3.16c-.61.95-1.24,1.79-1.71,2.7-.55,1.05.34,1.1,1.07,1.19-.17,1.07-.87.82-1.49.73-.58-.08-1.15-.17-1.73-.25.08-.93.17-1.96.28-3.09.97.24,1.31-.3,1.37-1.21.15-2.09-.78-3.72-2.13-5.18-.1-.11-.33-.11-.64-.21.4,1.44,1.51,2.65.46,4.5-.46-1.28-1.26-2.38-1.11-3.32.27-1.7-.09-2.95-1.33-4.03-.08-.07-.1-.2-.15-.31,1.65,0,2.91,1.29,3.81,3.37.69,1.59,1.23,3.24,1.83,4.86.07.03.15.06.22.09Z" fill="#d92a27" stroke-width="0"/><path id="Llama_2" d="M61.02,73.52c-.86-2.22,1.17-2.64,2.22-3.44,2.5-1.9,2.9-2.84,1.63-5.59-.03-.06,0-.14,0-.4.44.31.82.53,1.14.81,1.46,1.24,2.9,2.51,4.35,3.75.96.82,2,1.58,2.3,2.93.32,1.42-.15,2.24-1.48,2.3.19-1.65-.12-3.15-1.51-4.23-.9-.7-1.59-1.75-2.97-1.71-.22.96-.42,1.9-.63,2.83l.34.12c-.3.24-.6.48-.89.71-.55-.75-2.62.11-4.5,1.92Z" fill="#d92a27" stroke-width="0"/><path id="Llama_3" d="M67,90.12c-.7-.05-1.23-.08-1.85-.12-.09-.57-.28-1.1-.23-1.62.1-1.13-.49-1.23-1.4-1.23-1.07,0-.92.69-.94,1.33,0,.04,0,.08,0,.12q.07,1.75-1.8,1.81c-.18-1.08-.46-2.17-.47-3.26,0-.35.65-.97,1.06-1.03,1.13-.15,2.3-.08,3.45-.08,1.62,0,3.23,0,4.85.04.4.01.79.19,1.18.29-.2.29-.46.56-.58.88-.18.5-.28,1.03-.36,1.55-.09.52-.12,1.05-.41,1.56,0-.72-.02-1.45,0-2.17.02-.61-.02-1.09-.82-1.04-.71.04-1.45-.02-1.52.99-.04.61-.1,1.22-.16,1.98Z" fill="#000" stroke-width="0"/><path id="Caracol_Caparazon_1" d="M72.72,100.53c-.74-.13-1.37-.23-2.03-.35-.09.44-.16.76-.21,1-.52-1-1.04-1.98-1.64-3.14.81.74,1.53,1.4,2.25,2.06.12-.09.24-.18.37-.27-.26-.45-.44-.97-.79-1.33-2.58-2.63-6.47-2.63-9.12-.77-.75.52-1.39,1.31-2.73.78.23-.4.36-.89.68-1.14,2.8-2.18,8.52-3.35,12.11-.4,1.37,1.12,1.88,2.54,1.11,3.55Z" fill="#000" stroke-width="0"/><path id="Llama_4" d="M72.63,79.61c-.74.57-1.24.95-1.69,1.3-.76-1.06-1.37-1.13-2.25.04-1.19-1.09-1.86-1.07-2.64.07-1.17-1.13-1.48-1.14-2.48-.04-1.51-1.15-1.65-1.16-2.58-.03-1.06-1.23-1.79-1.19-2.49.01-.52-.3-1.04-.82-1.55-.81-.42,0-.82.65-1.06.86-.34-.3-.78-.68-1.23-1.07-.12.09-.24.19-.35.28.62.49,1.42.94.43,1.81-.22-.14-.54-.22-.63-.42-.24-.47-.55-1.02-.48-1.49.04-.27.74-.63,1.15-.64,3.41-.03,6.83,0,10.25.02,2.1,0,4.2,0,6.29.01.36,0,.72.05,1.31.08Z" fill="#000" stroke-width="0"/><path id="Llama_5" d="M67.7,70.78c.52,1.29,1.24,2.55,1.48,3.89.1.56-.81,1.31-1.27,1.97l-.34-.14c.08.31.16.62.26,1.01-.15-.07-.33-.09-.39-.18-.48-.83-1.19-1.47-1.68-2.37-.98-1.81-1.22-1.68-.82-2.56.05.56.09,1.03.16,1.73,1.34-.83,1.71-2.06,2.1-3.28.16-.03.33-.06.49-.09Z" fill="#d42a27" stroke-width="0"/><path id="Caracol_..." d="M81.24,107.73c-1.53,1.35-8.09,2.66-11.61,2.38,4-.19,7.57-2.41,11.61-2.38Z" fill="#000" stroke-width="0"/><path id="Llama_6" d="M64.42,75.51c.48,1.15.85,2.04,1.26,3.03-.78-.04-1.75-.05-2.7-.16-.57-.07-.92-1.14-.48-1.51.64-.55,1.39-.99,1.92-1.35Z" fill="#d92a27" stroke-width="0"/><path id="Llama_7" d="M53.23,75.96c-.15.55-.26.94-.37,1.37-.3-1.25-.33-2.4.16-3.56.24-.58.35-1.3.52-1.99.43.32-.45,1.92.54,1.81-.08,1.14-.17,2.23-.26,3.44-.17-.31-.32-.58-.59-1.08Z" fill="#d92a27" stroke-width="0"/><path id="Llama_8" d="M71.94,74.37q-.16,1.48,1.25,3.96c-.98.15-1.7-.86-2.19-2.87-.21.51-.41,1.02-.65,1.61h-1.4c.77-1.21,1.32-2.46,2.99-2.71Z" fill="#d92a27" stroke-width="0"/><path id="Llama_9" d="M59.63,72.96c-1.09.87-1.91,1.8-1.86,3.27,0,.29-.63.6-.97.89-.19-.39-.57-.78-.54-1.16.07-1.06,2.14-2.89,3.37-3.01Z" fill="#d92a27" stroke-width="0"/><path id="Llama_10" d="M69.74,65.64c1.75.22,2.73,1.52,2.42,3.91-.54-.64-.98-1.04-1.26-1.53-.45-.77-.79-1.6-1.16-2.38Z" fill="#000" stroke-width="0"/><path id="Caracol_Caparazon" d="M64.27,105.74c2.72,1,5.08.21,7.35-1.46.16.45.28.79.44,1.26-.42-.16-.74-.28-1.07-.41-1.01,1.38-4.78,1.75-6.72.6Z" fill="#000" stroke-width="0"/><path id="Caracol_Caparazon_Centro" d="M67.13,100.05c.46.26,1.19.44,1.3.81.11.35-.33.99-.69,1.35-.76.77-1.95.79-2.83.18-.53-.37-.56-.67-.11-1.17l-.02-.03c-.13.63.05,1.02.73,1.18.93.21,1.66-.16,2.03-.92.16-.33-.25-.95-.41-1.43l-.02.03Z" fill="#000" stroke-width="0"/><path id="Caracol_Caparazon-2" d="M73.7,97.89c1.03.85,1.23,1.79,1.03,2.61-.62,2.62-.71,2.66-1.61,2.72,1.32-1.58,1.2-3.3.58-5.33Z" fill="#000" stroke-width="0"/><path id="Caracol_Caparazon-3" d="M60.28,95.88c-3.05,1.48-4.39,3.57-3.77,7.2-1.2-3.29.58-6.71,3.77-7.2Z" fill="#000" stroke-width="0"/><path id="Llama_11" d="M76.84,82.45c-.35-.55-.66-.86-.6-.97.31-.57.71-1.1,1.09-1.64.17.17.52.42.49.51-.23.61-.54,1.19-.97,2.09Z" fill="#000" stroke-width="0"/><path id="Caracol_Centro_2" d="M64.82,101.21c.38-.18.75-.36,1.21-.58-.43-.15-.88-.31-1.34-.47.7-.89,1.7-.91,2.45-.11,0,0,.02-.03.02-.03-.38-.02-.75-.04-1.42-.08.52.36.77.53,1.01.7,0,.12,0,.23,0,.35-.65.07-1.31.13-1.96.2l.02.03Z" fill="#000" stroke-width="0"/><path id="Caracol_Caparazon-4" d="M60.81,100.06c-1.17,2.37-.05,3.88,1.91,5.08-2.45-.74-3.23-2.75-1.91-5.08Z" fill="#000" stroke-width="0"/><path id="Llama_12" d="M68.15,81.97h-1.64c-.15-.72.06-1.29.78-1.23.39.04.73.58,1.09.9-.08.11-.15.22-.23.33Z" fill="#000" stroke-width="0"/><path id="Llama_13" d="M60.39,81.89c-.51.06-.98.12-1.52.18-.14-.77-.1-1.36.72-1.43.85-.07.81.56.79,1.25Z" fill="#000" stroke-width="0"/><path id="Llama_14" d="M74.72,80.34c-.17,1.53-.33,1.74-1.28,1.69.14-1.62.33-1.88,1.28-1.69Z" fill="#000" stroke-width="0"/><path id="Llama_15" d="M68.88,81.68c.34-.35.68-.71,1.01-1.06.22.32.45.63.67.95-.42.22-.85.44-1.27.67-.14-.18-.28-.37-.42-.55Z" fill="#000" stroke-width="0"/><path id="Llama_16" d="M61.22,81.62c.33-.31.65-.62.98-.93.3.32.6.64.9.97-.06.1-.12.19-.19.29h-1.48c-.07-.11-.14-.22-.21-.32Z" fill="#000" stroke-width="0"/><path id="Llama_17" d="M65.35,81.99h-1.6c.44-.58.72-.94.99-1.29.3.32.6.64.9.95-.1.11-.2.23-.3.34Z" fill="#000" stroke-width="0"/><path id="Llama_18" d="M57.1,80.24c.38.53.7.79.75,1.1.03.18-.35.62-.54.62-.29,0-.84-.3-.83-.45.02-.35.3-.68.61-1.28Z" fill="#000" stroke-width="0"/><path id="Llama_19" d="M55.24,70.98c.52.41.86.69,1.22.97-.36.44-.68.83-.99,1.22l-.23-.15v-2.05Z" fill="#d42a27" stroke-width="0"/><path id="Caracol_Caparazon-5" d="M65.78,103.81c1.19-.28,2.27-.54,3.3-.79-.53.84-1.81,1.2-3.3.79Z" fill="#000" stroke-width="0"/><path id="Caracol_Caparazon-6" d="M63.19,98.56c1.19-.19,2.37-.38,3.56-.58.02.1.03.21.05.31-1.19.21-2.37.42-3.56.63-.02-.12-.04-.24-.05-.36Z" fill="#000" stroke-width="0"/><path id="Letra_A1-2" d="M29.12,66.23c1.18.38,2.35.77,3.57,1.16-1.34,1.83-1.41,1.83-2.74.22-.33-.4-.64-.81-.96-1.21.05-.06.09-.11.14-.17Z" fill="none" stroke-width="0"/><path id="Letra_A2-2" d="M100.37,67.22c.97-.34,2.13-.74,3.55-1.24-.89,1.04-1.61,1.89-2.43,2.85-.38-.54-.74-1.06-1.13-1.61Z" fill="none" stroke-width="0"/><path id="Caracol_Centro" d="M64.8,101.18c.65-.07,1.31-.13,1.96-.2,0-.12,0-.23,0-.35-.24-.17-.49-.34-1.01-.7.67.04,1.04.06,1.42.08.15.49.57,1.1.41,1.43-.36.75-1.1,1.13-2.03.92-.68-.16-.86-.55-.73-1.18Z" fill="#fff" stroke-width="0"/><path d="M17.56,36.11h-3.5v-2.34c0-.68-.04-1.1-.11-1.27-.07-.17-.24-.25-.49-.25-.29,0-.47.1-.55.31-.08.21-.12.65-.12,1.33v6.24c0,.65.04,1.08.12,1.28.08.2.25.3.52.3s.43-.1.51-.3c.08-.2.12-.67.12-1.41v-1.69h3.5v.52c0,1.39-.1,2.38-.29,2.96s-.63,1.09-1.3,1.53c-.67.44-1.5.66-2.49.66s-1.87-.19-2.53-.56c-.66-.37-1.1-.88-1.32-1.54-.22-.66-.32-1.64-.32-2.96v-3.93c0-.97.03-1.69.1-2.18s.26-.95.59-1.4c.33-.45.79-.8,1.37-1.06.58-.26,1.25-.39,2.01-.39,1.03,0,1.88.2,2.55.6.67.4,1.11.89,1.32,1.49.21.59.32,1.52.32,2.77v1.28Z" fill="#2d286c" stroke-width="0"/><path d="M26.3,36.56v2.7c0,.99-.05,1.72-.15,2.18s-.31.89-.64,1.29c-.33.4-.75.7-1.26.89-.51.19-1.1.29-1.76.29-.74,0-1.37-.08-1.88-.25s-.91-.41-1.2-.74-.49-.73-.61-1.2-.18-1.17-.18-2.1v-2.82c0-1.02.11-1.82.33-2.4.22-.58.62-1.04,1.2-1.39s1.31-.52,2.21-.52c.75,0,1.4.11,1.94.34.54.22.96.52,1.25.88.29.36.49.73.6,1.11.11.38.16.96.16,1.74ZM22.95,35.73c0-.56-.03-.92-.09-1.07-.06-.15-.19-.22-.39-.22s-.33.07-.4.22-.1.5-.1,1.07v4.97c0,.52.03.86.1,1.02.07.16.2.24.39.24s.33-.07.39-.21c.06-.14.1-.45.1-.93v-5.08Z" fill="#2d286c" stroke-width="0"/><path d="M30.86,30.26v13.44h-3.45v-13.44h3.45Z" fill="#2d286c" stroke-width="0"/><path d="M39.66,38.39h-4.34v2.38c0,.5.04.82.11.96.07.14.21.21.42.21.25,0,.42-.09.51-.29.09-.19.13-.56.13-1.11v-1.45h3.18v.81c0,.68-.04,1.2-.13,1.57s-.29.76-.6,1.17c-.32.42-.72.73-1.2.93-.48.21-1.09.31-1.82.31s-1.33-.1-1.88-.31c-.54-.21-.96-.49-1.27-.84-.3-.36-.51-.75-.63-1.18-.12-.43-.17-1.05-.17-1.87v-3.21c0-.96.13-1.72.39-2.28.26-.56.69-.98,1.28-1.28.59-.3,1.27-.44,2.04-.44.94,0,1.72.18,2.33.54.61.36,1.04.83,1.29,1.42.25.59.37,1.42.37,2.49v1.46ZM36.3,36.6v-.8c0-.57-.03-.94-.09-1.1-.06-.17-.19-.25-.37-.25-.23,0-.38.07-.43.21-.06.14-.08.52-.08,1.14v.8h.98Z" fill="#2d286c" stroke-width="0"/><path d="M48.38,32.69v8.48c0,1.14-.03,1.88-.08,2.22s-.24.69-.56,1.06c-.32.37-.77.66-1.34.86-.57.2-1.29.29-2.16.29-1.07,0-1.93-.18-2.57-.54-.65-.36-.98-1.08-1-2.14h3.25c0,.49.18.73.53.73.25,0,.42-.08.51-.22.08-.15.12-.46.12-.94v-.83c-.29.26-.59.46-.91.59s-.65.2-1,.2c-.6,0-1.1-.12-1.49-.37-.39-.24-.66-.56-.8-.96s-.22-.96-.22-1.69v-4c0-1.05.19-1.8.56-2.26s.95-.69,1.72-.69c.42,0,.8.09,1.15.26s.65.43.92.77l.24-.83h3.12ZM45.01,35.61c0-.5-.03-.82-.09-.96-.06-.14-.19-.21-.39-.21s-.33.08-.41.24c-.08.16-.12.47-.12.93v3.7c0,.49.03.81.09.96.06.15.19.22.38.22.22,0,.37-.09.43-.27.07-.18.1-.58.1-1.2v-3.41Z" fill="#2d286c" stroke-width="0"/><path d="M53.02,30.26v1.75h-3.45v-1.75h3.45ZM53.02,32.69v11.02h-3.45v-11.02h3.45Z" fill="#2d286c" stroke-width="0"/><path d="M61.82,36.56v2.7c0,.99-.05,1.72-.15,2.18s-.31.89-.64,1.29c-.33.4-.75.7-1.26.89-.51.19-1.1.29-1.76.29-.74,0-1.37-.08-1.88-.25s-.91-.41-1.2-.74-.49-.73-.61-1.2-.18-1.17-.18-2.1v-2.82c0-1.02.11-1.82.33-2.4.22-.58.62-1.04,1.2-1.39s1.31-.52,2.21-.52c.75,0,1.4.11,1.94.34.54.22.96.52,1.25.88.29.36.49.73.6,1.11.11.38.16.96.16,1.74ZM58.46,35.73c0-.56-.03-.92-.09-1.07-.06-.15-.19-.22-.39-.22s-.33.07-.4.22-.1.5-.1,1.07v4.97c0,.52.03.86.1,1.02.07.16.2.24.39.24s.33-.07.39-.21c.06-.14.1-.45.1-.93v-5.08Z" fill="#2d286c" stroke-width="0"/><path d="M73.82,30.26v13.44h-3.06l-1.82-6.11v6.11h-2.92v-13.44h2.92l1.96,6.05v-6.05h2.92Z" fill="#2d286c" stroke-width="0"/><path d="M78.12,36.95h-3.15v-.74c0-.85.1-1.51.29-1.97s.59-.87,1.18-1.22c.59-.35,1.36-.53,2.31-.53,1.13,0,1.99.2,2.57.6.58.4.92.89,1.04,1.48s.17,1.79.17,3.61v5.53h-3.26v-.98c-.21.39-.47.69-.79.89-.32.2-.71.29-1.16.29-.59,0-1.12-.17-1.61-.49-.49-.33-.73-1.05-.73-2.16v-.9c0-.83.13-1.39.39-1.69.26-.3.91-.65,1.93-1.05,1.1-.43,1.69-.72,1.77-.87.08-.15.12-.45.12-.91,0-.58-.04-.95-.13-1.12-.09-.17-.23-.26-.43-.26-.23,0-.37.07-.42.22-.06.15-.08.53-.08,1.14v1.15ZM79.18,38.46c-.54.39-.85.72-.93.99s-.13.65-.13,1.15c0,.57.04.94.11,1.1.08.17.22.25.44.25.21,0,.35-.06.41-.19s.09-.47.09-1.03v-2.27Z" fill="#2d286c" stroke-width="0"/><path d="M91.1,36.85h-3.16v-1.27c0-.44-.04-.74-.11-.9-.07-.16-.21-.24-.4-.24s-.32.07-.39.21c-.07.14-.1.45-.1.93v5.2c0,.39.05.69.15.88s.25.29.44.29c.23,0,.38-.1.46-.31s.12-.59.12-1.16v-1.31h2.99c0,.88-.04,1.54-.09,1.98-.06.44-.24.89-.56,1.35s-.72.81-1.22,1.05c-.5.24-1.13.35-1.87.35-.95,0-1.7-.16-2.25-.49-.55-.32-.95-.78-1.17-1.36s-.34-1.41-.34-2.49v-3.13c0-.93.09-1.64.28-2.12s.59-.9,1.2-1.27c.61-.37,1.36-.56,2.24-.56s1.62.19,2.24.56c.62.37,1.03.84,1.24,1.4s.31,1.36.31,2.4Z" fill="#2d286c" stroke-width="0"/><path d="M95.55,30.26v1.75h-3.45v-1.75h3.45ZM95.55,32.69v11.02h-3.45v-11.02h3.45Z" fill="#2d286c" stroke-width="0"/><path d="M104.34,36.56v2.7c0,.99-.05,1.72-.15,2.18s-.31.89-.64,1.29c-.33.4-.75.7-1.26.89-.51.19-1.1.29-1.76.29-.74,0-1.37-.08-1.88-.25s-.91-.41-1.2-.74-.49-.73-.61-1.2-.18-1.17-.18-2.1v-2.82c0-1.02.11-1.82.33-2.4.22-.58.62-1.04,1.2-1.39s1.31-.52,2.21-.52c.75,0,1.4.11,1.94.34.54.22.96.52,1.25.88.29.36.49.73.6,1.11.11.38.16.96.16,1.74ZM100.99,35.73c0-.56-.03-.92-.09-1.07-.06-.15-.19-.22-.39-.22s-.33.07-.4.22-.1.5-.1,1.07v4.97c0,.52.03.86.1,1.02.07.16.2.24.39.24s.33-.07.39-.21c.06-.14.1-.45.1-.93v-5.08Z" fill="#2d286c" stroke-width="0"/><path d="M108.86,32.69l-.06,1.02c.24-.41.54-.71.89-.91s.76-.3,1.22-.3c.58,0,1.05.14,1.41.41s.6.61.71,1.03c.11.41.16,1.1.16,2.06v7.72h-3.35v-7.63c0-.76-.03-1.22-.07-1.39-.05-.17-.19-.25-.42-.25s-.39.1-.45.29c-.06.19-.09.7-.09,1.53v7.45h-3.35v-11.02h3.41Z" fill="#2d286c" stroke-width="0"/><path d="M117.33,36.95h-3.15v-.74c0-.85.1-1.51.29-1.97s.59-.87,1.18-1.22c.59-.35,1.36-.53,2.31-.53,1.13,0,1.99.2,2.57.6.58.4.92.89,1.04,1.48s.17,1.79.17,3.61v5.53h-3.26v-.98c-.21.39-.47.69-.79.89-.32.2-.71.29-1.16.29-.59,0-1.12-.17-1.61-.49-.49-.33-.73-1.05-.73-2.16v-.9c0-.83.13-1.39.39-1.69.26-.3.91-.65,1.93-1.05,1.1-.43,1.69-.72,1.77-.87.08-.15.12-.45.12-.91,0-.58-.04-.95-.13-1.12-.09-.17-.23-.26-.43-.26-.23,0-.37.07-.42.22-.06.15-.08.53-.08,1.14v1.15ZM118.39,38.46c-.54.39-.85.72-.93.99s-.13.65-.13,1.15c0,.57.04.94.11,1.1.08.17.22.25.44.25.21,0,.35-.06.41-.19s.09-.47.09-1.03v-2.27Z" fill="#2d286c" stroke-width="0"/><path d="M126.35,30.26v13.44h-3.45v-13.44h3.45Z" fill="#2d286c" stroke-width="0"/><path d="M24.23,123.26l2.07-4.48h2.24l-3.27,6.34v3.61h-2.08v-3.61l-3.27-6.34h2.25l2.06,4.48Z" fill="#2d286c" stroke-width="0"/><path d="M33.36,128.73c-.09-.18-.16-.4-.2-.66-.48.53-1.1.8-1.87.8-.72,0-1.33-.21-1.8-.63-.48-.42-.71-.95-.71-1.59,0-.78.29-1.39.87-1.8.58-.42,1.42-.63,2.52-.64h.91v-.42c0-.34-.09-.62-.26-.82-.18-.21-.45-.31-.83-.31-.33,0-.59.08-.78.24-.19.16-.28.38-.28.66h-1.98c0-.43.13-.83.4-1.19s.64-.65,1.12-.86c.48-.21,1.03-.31,1.63-.31.91,0,1.63.23,2.17.69.54.46.8,1.1.8,1.93v3.21c0,.7.1,1.23.29,1.59v.12h-2ZM31.73,127.36c.29,0,.56-.07.81-.19.25-.13.43-.3.55-.52v-1.27h-.74c-.99,0-1.52.34-1.58,1.03v.12c0,.25.08.45.25.61s.41.24.71.24Z" fill="#2d286c" stroke-width="0"/><path d="M39.13,119.52v1.82h1.26v1.45h-1.26v3.69c0,.27.05.47.16.59s.31.18.6.18c.22,0,.41-.02.58-.05v1.5c-.39.12-.79.18-1.2.18-1.39,0-2.09-.7-2.12-2.1v-3.99h-1.08v-1.45h1.08v-1.82h1.98Z" fill="#2d286c" stroke-width="0"/><path d="M44.44,125.94l1.37-4.6h2.12l-2.97,8.54-.16.39c-.44.97-1.17,1.45-2.19,1.45-.29,0-.58-.04-.88-.13v-1.5h.3c.37,0,.65-.05.84-.16.18-.11.33-.3.43-.57l.23-.61-2.59-7.42h2.13l1.37,4.6Z" fill="#2d286c" stroke-width="0"/><path d="M51.25,119.52v1.82h1.26v1.45h-1.26v3.69c0,.27.05.47.16.59s.31.18.6.18c.22,0,.41-.02.58-.05v1.5c-.39.12-.79.18-1.2.18-1.39,0-2.09-.7-2.12-2.1v-3.99h-1.08v-1.45h1.08v-1.82h1.98Z" fill="#2d286c" stroke-width="0"/><path d="M58.09,128.73c-.09-.18-.16-.4-.2-.66-.48.53-1.1.8-1.87.8-.72,0-1.33-.21-1.8-.63-.48-.42-.71-.95-.71-1.59,0-.78.29-1.39.87-1.8.58-.42,1.42-.63,2.52-.64h.91v-.42c0-.34-.09-.62-.26-.82-.18-.21-.45-.31-.83-.31-.33,0-.59.08-.78.24-.19.16-.28.38-.28.66h-1.98c0-.43.13-.83.4-1.19s.64-.65,1.12-.86c.48-.21,1.03-.31,1.63-.31.91,0,1.63.23,2.17.69.54.46.8,1.1.8,1.93v3.21c0,.7.1,1.23.29,1.59v.12h-2ZM56.45,127.36c.29,0,.56-.07.81-.19.25-.13.43-.3.55-.52v-1.27h-.74c-.99,0-1.52.34-1.58,1.03v.12c0,.25.08.45.25.61s.41.24.71.24Z" fill="#2d286c" stroke-width="0"/><path d="M64.15,125.94l1.37-4.6h2.12l-2.97,8.54-.16.39c-.44.97-1.17,1.45-2.19,1.45-.29,0-.58-.04-.88-.13v-1.5h.3c.37,0,.65-.05.84-.16.18-.11.33-.3.43-.57l.23-.61-2.59-7.42h2.13l1.37,4.6Z" fill="#2d286c" stroke-width="0"/><path d="M75.51,124.74l-1.07,1.15v2.84h-2.05v-9.95h2.05v4.51l.9-1.24,2.54-3.27h2.52l-3.53,4.42,3.64,5.53h-2.44l-2.56-3.99Z" fill="#2d286c" stroke-width="0"/><path d="M83.18,121.33l.06.83c.52-.64,1.23-.96,2.13-.96.95,0,1.61.38,1.96,1.13.52-.75,1.26-1.13,2.22-1.13.8,0,1.4.23,1.79.7.39.47.59,1.17.59,2.11v4.72h-1.98v-4.72c0-.42-.08-.73-.25-.92-.16-.19-.45-.29-.87-.29-.59,0-1,.28-1.23.85v5.08s-1.97,0-1.97,0v-4.71c0-.43-.08-.74-.25-.93s-.46-.29-.86-.29c-.56,0-.97.23-1.22.7v5.23h-1.98v-7.4h1.85Z" fill="#2d286c" stroke-width="0"/><path d="M93.74,127.76c0-.31.11-.57.32-.77.21-.2.48-.29.8-.29s.59.1.8.29c.21.2.32.45.32.77s-.1.56-.31.76c-.21.19-.48.29-.81.29s-.59-.1-.8-.29c-.21-.19-.31-.45-.31-.76Z" fill="#2d286c" stroke-width="0"/><path d="M106.27,128.73h-1.98v-7.62l-2.36.73v-1.61l4.12-1.48h.21v9.97Z" fill="#2d286c" stroke-width="0"/><path d="M115.04,118.68v1.63h-.19c-.89.01-1.61.25-2.16.7-.54.45-.87,1.08-.98,1.88.53-.54,1.2-.81,2-.81.87,0,1.55.31,2.06.93s.77,1.44.77,2.45c0,.65-.14,1.23-.42,1.76-.28.52-.68.93-1.19,1.22-.51.29-1.09.44-1.74.44-1.05,0-1.89-.36-2.54-1.09-.64-.73-.97-1.7-.97-2.92v-.71c0-1.08.2-2.03.61-2.86.41-.83.99-1.47,1.76-1.92.76-.45,1.65-.68,2.66-.69h.33ZM113.11,123.67c-.32,0-.61.08-.87.25s-.45.39-.57.66v.6c0,.66.13,1.17.39,1.55.26.37.62.56,1.09.56.42,0,.77-.17,1.03-.5.26-.33.39-.77.39-1.3s-.13-.98-.4-1.31-.62-.5-1.07-.5Z" fill="#2d286c" stroke-width="0"/><path d="M51.32,145.53h-2.05v-9.95h2.05v9.95Z" fill="#2d286c" stroke-width="0"/><path d="M55.64,136.32v1.82h1.26v1.45h-1.26v3.69c0,.27.05.47.16.59s.31.18.6.18c.22,0,.41-.02.58-.05v1.5c-.39.12-.79.18-1.2.18-1.39,0-2.09-.7-2.12-2.1v-3.99h-1.08v-1.45h1.08v-1.82h1.98Z" fill="#2d286c" stroke-width="0"/><path d="M62.47,145.53c-.09-.18-.16-.4-.2-.66-.48.53-1.1.8-1.87.8-.72,0-1.33-.21-1.8-.63-.48-.42-.71-.95-.71-1.59,0-.78.29-1.39.87-1.8.58-.42,1.42-.63,2.52-.64h.91v-.42c0-.34-.09-.62-.26-.82-.18-.21-.45-.31-.83-.31-.33,0-.59.08-.78.24-.19.16-.28.38-.28.66h-1.98c0-.43.13-.83.4-1.19s.64-.65,1.12-.86c.48-.21,1.03-.31,1.63-.31.91,0,1.63.23,2.17.69.54.46.8,1.1.8,1.93v3.21c0,.7.1,1.23.29,1.59v.12h-2ZM60.84,144.16c.29,0,.56-.07.81-.19.25-.13.43-.3.55-.52v-1.27h-.74c-.99,0-1.52.34-1.58,1.03v.12c0,.25.08.45.25.61s.41.24.71.24Z" fill="#2d286c" stroke-width="0"/><path d="M72.53,141.9c0,1.14-.26,2.05-.78,2.74-.52.69-1.21,1.03-2.09,1.03-.75,0-1.35-.26-1.81-.78v3.49h-1.98v-10.24h1.83l.07.72c.48-.57,1.1-.86,1.87-.86.91,0,1.62.34,2.13,1.01s.76,1.6.76,2.79v.1ZM70.55,141.76c0-.69-.12-1.22-.37-1.59-.24-.37-.6-.56-1.06-.56-.62,0-1.05.24-1.28.71v3.03c.24.49.67.73,1.29.73.94,0,1.42-.77,1.42-2.32Z" fill="#2d286c" stroke-width="0"/><path d="M78.37,144.78c-.49.59-1.16.89-2.02.89-.79,0-1.4-.23-1.82-.68-.42-.46-.63-1.12-.64-2v-4.85h1.98v4.78c0,.77.35,1.16,1.05,1.16s1.13-.23,1.38-.7v-5.24h1.98v7.4h-1.86l-.05-.75ZM77.48,135.03h2.15l-1.89,2.12h-1.61l1.35-2.12Z" fill="#2d286c" stroke-width="0"/><path d="M86.24,145.53c-.09-.18-.16-.4-.2-.66-.48.53-1.1.8-1.87.8-.72,0-1.33-.21-1.8-.63-.48-.42-.71-.95-.71-1.59,0-.78.29-1.39.87-1.8.58-.42,1.42-.63,2.52-.64h.91v-.42c0-.34-.09-.62-.26-.82-.18-.21-.45-.31-.83-.31-.33,0-.59.08-.78.24-.19.16-.28.38-.28.66h-1.98c0-.43.13-.83.4-1.19s.64-.65,1.12-.86c.48-.21,1.03-.31,1.63-.31.91,0,1.63.23,2.17.69.54.46.8,1.1.8,1.93v3.21c0,.7.1,1.23.29,1.59v.12h-2ZM84.6,144.16c.29,0,.56-.07.81-.19.25-.13.43-.3.55-.52v-1.27h-.74c-.99,0-1.52.34-1.58,1.03v.12c0,.25.08.45.25.61s.41.24.71.24Z" fill="#2d286c" stroke-width="0"/></svg>